<svg xmlns="http://www.w3.org/2000/svg" width="202.136" height="76.372"><defs><style>.aa{fill:#818284}</style></defs><path d="M121.295 18.768a15.8 15.8 0 0 0-11.758 5.049l-4.524-4.218v56.774h4.147V45.896a16.294 16.294 0 1 0 12.129-27.133Zm8.633 24.909a12.386 12.386 0 1 1 3.5-8.627 11.725 11.725 0 0 1-3.491 8.627ZM151.176 47.174c-3.393 0-4.917-.617-4.917-4.267V0h-4.202v42.836c0 3.054.677 5.174 2.071 6.491 1.268 1.186 3.092 1.743 5.748 1.743.415 0 .863 0 1.322-.044h.295V47.2ZM172.791 38.967a8.053 8.053 0 0 1-2.322 5.693 7.649 7.649 0 0 1-5.841 2.448 7.939 7.939 0 0 1-5.688-2.371 7.742 7.742 0 0 1-2.453-5.77V19.598h-4.141v19.369a12.091 12.091 0 0 0 12.282 12.288 11.638 11.638 0 0 0 8.742-3.693l3.541 2.863V19.598h-4.147ZM193.301 31.984c-3.2-1.164-5.956-2.186-5.956-5.114 0-2.431 2.486-4.251 4.71-4.251a5.311 5.311 0 0 1 4.917 3.142l.186.4 2.918-2.732a9.6 9.6 0 0 0-7.862-4.557c-4.917 0-8.78 3.59-8.78 8.2 0 5.518 5.1 7.381 9.212 8.879 3.169 1.093 5.595 2.213 5.595 5.529a6.289 6.289 0 0 1-6.36 6.36c-4.371 0-6.278-3.174-7.1-5.841l-.12-.382-3.265 3.01a10.927 10.927 0 0 0 10.452 6.939c5.868 0 10.288-4.278 10.288-9.955.022-6.392-4.688-8.108-8.835-9.627Z" class="aa"/><path d="m209.068 160.18-16.735-11.692h8.742a7.72 7.72 0 0 0 7.7-7.7v-37.36a7.72 7.72 0 0 0-7.687-7.7h-86.411a7.726 7.726 0 0 0-7.677 7.7v37.361a7.726 7.726 0 0 0 7.7 7.7h55.55a26239.221 26239.221 0 0 1 38.818 11.691Z" style="fill:#f1c708" transform="translate(-107 -93.146)"/><path d="M232.158 125.349a15.752 15.752 0 0 0-11.474 4.748 16.258 16.258 0 1 0 23.216 22.762l4.524 4.147v-30.827L243.9 130.4a15.812 15.812 0 0 0-11.742-5.051Zm8.594 24.871a12.151 12.151 0 1 1 2.612-13.227 12.179 12.179 0 0 1-2.612 13.227Z" style="fill:#fff" transform="translate(-156.381 -106.581)"/></svg>